<?xml version="1.0" encoding="UTF-8"?>
<svg xmlns="http://www.w3.org/2000/svg" xmlns:xlink="http://www.w3.org/1999/xlink" width="500" height="500" viewBox="0 0 500 500">
<defs>
<radialGradient id="radial-pattern-0" gradientUnits="userSpaceOnUse" cx="0.5" cy="0.5" fx="0.1875" fy="0.1875" r="0.5" gradientTransform="matrix(500, 0, 0, 500, 0, 0)">
<stop offset="0.2" stop-color="rgb(100%, 80%, 80%)" stop-opacity="1"/>
<stop offset="1" stop-color="rgb(90%, 0%, 0%)" stop-opacity="1"/>
</radialGradient>
<linearGradient id="linear-pattern-0" gradientUnits="userSpaceOnUse" x1="0.25" y1="0.35" x2="0.75" y2="0.65" gradientTransform="matrix(500, 0, 0, 500, 0, 0)">
<stop offset="0" stop-color="rgb(100%, 100%, 100%)" stop-opacity="0"/>
<stop offset="0.25" stop-color="rgb(0%, 100%, 0%)" stop-opacity="0.5"/>
<stop offset="0.5" stop-color="rgb(100%, 100%, 100%)" stop-opacity="0"/>
<stop offset="0.75" stop-color="rgb(0%, 0%, 100%)" stop-opacity="0.5"/>
<stop offset="1" stop-color="rgb(100%, 100%, 100%)" stop-opacity="0"/>
</linearGradient>
</defs>
<path fill-rule="nonzero" fill="url(#radial-pattern-0)" d="M 30 30 L 70 30 L 70 70 L 30 70 Z M 30 80 L 70 80 L 70 120 L 30 120 Z M 30 130 L 70 130 L 70 170 L 30 170 Z M 30 180 L 70 180 L 70 220 L 30 220 Z M 30 230 L 70 230 L 70 270 L 30 270 Z M 30 280 L 70 280 L 70 320 L 30 320 Z M 30 330 L 70 330 L 70 370 L 30 370 Z M 30 380 L 70 380 L 70 420 L 30 420 Z M 30 430 L 70 430 L 70 470 L 30 470 Z M 80 30 L 120 30 L 120 70 L 80 70 Z M 80 80 L 120 80 L 120 120 L 80 120 Z M 80 130 L 120 130 L 120 170 L 80 170 Z M 80 180 L 120 180 L 120 220 L 80 220 Z M 80 230 L 120 230 L 120 270 L 80 270 Z M 80 280 L 120 280 L 120 320 L 80 320 Z M 80 330 L 120 330 L 120 370 L 80 370 Z M 80 380 L 120 380 L 120 420 L 80 420 Z M 80 430 L 120 430 L 120 470 L 80 470 Z M 130 30 L 170 30 L 170 70 L 130 70 Z M 130 80 L 170 80 L 170 120 L 130 120 Z M 130 130 L 170 130 L 170 170 L 130 170 Z M 130 180 L 170 180 L 170 220 L 130 220 Z M 130 230 L 170 230 L 170 270 L 130 270 Z M 130 280 L 170 280 L 170 320 L 130 320 Z M 130 330 L 170 330 L 170 370 L 130 370 Z M 130 380 L 170 380 L 170 420 L 130 420 Z M 130 430 L 170 430 L 170 470 L 130 470 Z M 180 30 L 220 30 L 220 70 L 180 70 Z M 180 80 L 220 80 L 220 120 L 180 120 Z M 180 130 L 220 130 L 220 170 L 180 170 Z M 180 180 L 220 180 L 220 220 L 180 220 Z M 180 230 L 220 230 L 220 270 L 180 270 Z M 180 280 L 220 280 L 220 320 L 180 320 Z M 180 330 L 220 330 L 220 370 L 180 370 Z M 180 380 L 220 380 L 220 420 L 180 420 Z M 180 430 L 220 430 L 220 470 L 180 470 Z M 230 30 L 270 30 L 270 70 L 230 70 Z M 230 80 L 270 80 L 270 120 L 230 120 Z M 230 130 L 270 130 L 270 170 L 230 170 Z M 230 180 L 270 180 L 270 220 L 230 220 Z M 230 230 L 270 230 L 270 270 L 230 270 Z M 230 280 L 270 280 L 270 320 L 230 320 Z M 230 330 L 270 330 L 270 370 L 230 370 Z M 230 380 L 270 380 L 270 420 L 230 420 Z M 230 430 L 270 430 L 270 470 L 230 470 Z M 280 30 L 320 30 L 320 70 L 280 70 Z M 280 80 L 320 80 L 320 120 L 280 120 Z M 280 130 L 320 130 L 320 170 L 280 170 Z M 280 180 L 320 180 L 320 220 L 280 220 Z M 280 230 L 320 230 L 320 270 L 280 270 Z M 280 280 L 320 280 L 320 320 L 280 320 Z M 280 330 L 320 330 L 320 370 L 280 370 Z M 280 380 L 320 380 L 320 420 L 280 420 Z M 280 430 L 320 430 L 320 470 L 280 470 Z M 330 30 L 370 30 L 370 70 L 330 70 Z M 330 80 L 370 80 L 370 120 L 330 120 Z M 330 130 L 370 130 L 370 170 L 330 170 Z M 330 180 L 370 180 L 370 220 L 330 220 Z M 330 230 L 370 230 L 370 270 L 330 270 Z M 330 280 L 370 280 L 370 320 L 330 320 Z M 330 330 L 370 330 L 370 370 L 330 370 Z M 330 380 L 370 380 L 370 420 L 330 420 Z M 330 430 L 370 430 L 370 470 L 330 470 Z M 380 30 L 420 30 L 420 70 L 380 70 Z M 380 80 L 420 80 L 420 120 L 380 120 Z M 380 130 L 420 130 L 420 170 L 380 170 Z M 380 180 L 420 180 L 420 220 L 380 220 Z M 380 230 L 420 230 L 420 270 L 380 270 Z M 380 280 L 420 280 L 420 320 L 380 320 Z M 380 330 L 420 330 L 420 370 L 380 370 Z M 380 380 L 420 380 L 420 420 L 380 420 Z M 380 430 L 420 430 L 420 470 L 380 470 Z M 430 30 L 470 30 L 470 70 L 430 70 Z M 430 80 L 470 80 L 470 120 L 430 120 Z M 430 130 L 470 130 L 470 170 L 430 170 Z M 430 180 L 470 180 L 470 220 L 430 220 Z M 430 230 L 470 230 L 470 270 L 430 270 Z M 430 280 L 470 280 L 470 320 L 430 320 Z M 430 330 L 470 330 L 470 370 L 430 370 Z M 430 380 L 470 380 L 470 420 L 430 420 Z M 430 430 L 470 430 L 470 470 L 430 470 Z M 430 430 "/>
<rect x="-50" y="-50" width="600" height="600" fill="url(#linear-pattern-0)"/>
</svg>
